<svg xmlns="http://www.w3.org/2000/svg" viewBox="0 0 1920 1080"><defs><style>.a{fill:#ed1e79;}.b{fill:#ff0;}.c{fill:#29abe2;}</style></defs><title>Asset 1</title><polygon class="a" points="0 0 0 1080 1250.85 0 0 0"/><polygon class="b" points="1148.36 639.69 703.27 639.69 915 464.54 1148.36 639.69"/><polygon class="b" points="1735 1080 171 1080 677.51 661 1176.75 661 1735 1080"/><polygon class="c" points="1339 0 953 353 1920 1025 1920 0 1339 0"/><polygon class="b" points="521 639.69 703.27 639.69 677.51 661 521 661 521 639.69"/><polygon class="b" points="1317 639.69 1317 661 1176.75 661 1148.36 639.69 1317 639.69"/><path class="b" d="M472.23,147.79q0,6-4.66,13.3a18.87,18.87,0,0,1-15.3,7.32,19.83,19.83,0,0,1-10.64-3.33q-53.22-35.24-116.39-35.25-53.87,0-97.44,25.28t-68.5,70.83q-24.95,45.57-24.94,103.42,0,59.2,25.27,104.76t68.84,70.5q43.56,24.93,96.77,24.94,63.18,0,115.73-34.59a21,21,0,0,1,11.3-3.32q9.32,0,15.3,8a18.58,18.58,0,0,1,4.66,12.63q0,10.65-9.31,16Q437,545.53,399.07,557.16T325.24,568.8q-63.19,0-116.72-30.26t-85.14-84.8Q91.79,399.2,91.79,329.36q0-67.17,31.26-122t84.47-85.8q53.21-30.93,117.72-30.93a253.39,253.39,0,0,1,72.83,10.64,234.33,234.33,0,0,1,64.18,29.93Q472.23,137.15,472.23,147.79Z"/><path class="c" d="M1038.25,441.16a234.33,234.33,0,0,0-64.18-29.93,253.39,253.39,0,0,0-72.83-10.64q-64.51,0-117.72,30.93t-84.47,85.8q-31.27,54.87-31.26,122v.33h42.57v-.33q0-57.86,24.94-103.42t68.5-70.83q43.56-25.28,97.44-25.28,63.18,0,116.39,35.25a19.83,19.83,0,0,0,10.64,3.33,18.87,18.87,0,0,0,15.3-7.32q4.65-7.3,4.66-13.3Q1048.23,447.16,1038.25,441.16Z"/><path class="a" d="M1892,751.63q0,11.57-8,18.67a27.15,27.15,0,0,1-18.66,7.11,25.61,25.61,0,0,1-15.56-4.89,31.34,31.34,0,0,1-10.22-12.89L1772.91,597H1484l-65.77,162.65q-7.12,17.79-24,17.78-12.46,0-18.67-6.22t-7.11-16.89v-2.67a26.75,26.75,0,0,1,.89-8L1604,169.45q7.11-17.77,26.67-17.78a25.67,25.67,0,0,1,15.55,4.89,31.54,31.54,0,0,1,10.22,12.89L1890.23,741A48.5,48.5,0,0,1,1892,751.63ZM1504.48,544.54h247.1l-124.44-304Z"/><path class="a" d="M1048.23,822.26q0,10.65-9.31,16-26,17.29-63.85,28.93T901.24,878.8q-63.19,0-116.72-30.26t-85.14-84.8q-31.51-54.4-31.59-124h42.57q.07,59,25.27,104.43t68.84,70.5q43.56,24.93,96.77,24.94,63.18,0,115.73-34.59a21,21,0,0,1,11.3-3.32q9.32,0,15.3,8A18.58,18.58,0,0,1,1048.23,822.26Z"/></svg>