<svg xmlns="http://www.w3.org/2000/svg" viewBox="0 0 1920 1080"><defs><style>.a{fill:#ed1e79;}.b{fill:#ff0;}.c{fill:#29abe2;}</style></defs><title>bg_cca2</title><polygon class="a" points="0 0 0 1080 1250.85 0 0 0"/><polygon class="b" points="1148.36 639.69 703.27 639.69 915 464.54 1148.36 639.69"/><polygon class="b" points="1735 1080 171 1080 677.51 661 1176.75 661 1735 1080"/><polygon class="c" points="1339 0 953 353 1920 1025 1920 0 1339 0"/><polygon class="c" points="521 870.5 703.27 870.5 677.51 891.81 521 891.81 521 870.5"/><polygon class="a" points="1317 870.5 1317 891.81 1176.75 891.81 1148.36 870.5 1317 870.5"/><path class="b" d="M369,615.49q0,4.23-3.29,9.41a13.37,13.37,0,0,1-10.83,5.18,14,14,0,0,1-7.53-2.36A146.15,146.15,0,0,0,265,602.78q-38.12,0-68.94,17.89t-48.48,50.12Q129.93,703,129.93,744q0,41.89,17.88,74.12T196.52,868q30.81,17.65,68.47,17.65a145.81,145.81,0,0,0,81.89-24.47,14.84,14.84,0,0,1,8-2.35,13,13,0,0,1,10.83,5.65,13.16,13.16,0,0,1,3.29,8.94,12.21,12.21,0,0,1-6.59,11.29q-18.35,12.24-45.18,20.47A177.52,177.52,0,0,1,265,913.39q-44.71,0-82.59-21.41t-60.24-60q-22.35-38.58-22.35-88,0-47.54,22.12-86.36t59.76-60.71Q219.34,575,265,575a179,179,0,0,1,51.54,7.53,165.64,165.64,0,0,1,45.41,21.17Q369,608,369,615.49Z"/><path class="c" d="M1002.06,788.67a126.42,126.42,0,0,0-34.65-16.16,137,137,0,0,0-39.33-5.75q-34.85,0-63.57,16.71a122.87,122.87,0,0,0-45.62,46.33Q802,859.43,802,895.7v.18h23v-.18q0-31.25,13.47-55.85a97.17,97.17,0,0,1,37-38.24Q899,788,928.08,788a111.52,111.52,0,0,1,62.85,19,10.73,10.73,0,0,0,5.74,1.8,10.18,10.18,0,0,0,8.27-4,13.71,13.71,0,0,0,2.51-7.18Q1007.45,791.91,1002.06,788.67Z"/><path class="a" d="M1892,751.63q0,11.57-8,18.67a27.15,27.15,0,0,1-18.66,7.11,25.61,25.61,0,0,1-15.56-4.89,31.34,31.34,0,0,1-10.22-12.89L1772.91,597H1484l-65.77,162.65q-7.12,17.79-24,17.78-12.46,0-18.67-6.22t-7.11-16.89v-2.67a26.75,26.75,0,0,1,.89-8L1604,169.45q7.11-17.77,26.67-17.78a25.67,25.67,0,0,1,15.55,4.89,31.54,31.54,0,0,1,10.22,12.89L1890.23,741A48.5,48.5,0,0,1,1892,751.63ZM1504.48,544.54h247.1l-124.44-304Z"/><path class="a" d="M1007.45,994.47a9.33,9.33,0,0,1-5,8.62q-14,9.35-34.47,15.62a135.64,135.64,0,0,1-39.87,6.29,125.81,125.81,0,0,1-63-16.34,121.48,121.48,0,0,1-46-45.79q-17-29.39-17.06-67h23q0,31.86,13.65,56.39a97.18,97.18,0,0,0,37.17,38.07q23.52,13.47,52.26,13.47a111.3,111.3,0,0,0,62.49-18.68,11.36,11.36,0,0,1,6.1-1.79,9.93,9.93,0,0,1,8.27,4.31A10,10,0,0,1,1007.45,994.47Z"/></svg>