<svg xmlns="http://www.w3.org/2000/svg" viewBox="0 0 560 288"><defs><style>.a{fill:#29abe2;}.b{fill:#e5e5e5;stroke:#333;stroke-miterlimit:10;stroke-width:7px;}.c{fill:#333;}.d{fill:#e6e6e6;opacity:0.18;}.e{font-size:12px;fill:#f2f2f2;font-family:MyriadPro-Regular, Myriad Pro;letter-spacing:-0.02em;}.f{letter-spacing:0em;}.g{fill:#1b1464;}.h{fill:#fcee21;}.i{fill:gray;}</style></defs><title>bg_eyes</title><rect class="a" width="560" height="288"/><ellipse class="b" cx="419.84" cy="143.6" rx="73.04" ry="69.91" transform="translate(-23.86 139.39) rotate(-18.34)"/><path class="c" d="M372.54,171.05a40,40,0,0,1-5-45l.12.14a5.63,5.63,0,1,0,8.5-7.37,5.69,5.69,0,0,0-2.23-1.57c.85-.89,1.75-1.74,2.69-2.56a40,40,0,1,1-4,56.39Z"/><path class="d" d="M377.31,165.1c-8.55-10-10.72-24.17-4.43-35.38l.09.11c1.56,1.83,5.74,2,7.64.39a4.89,4.89,0,0,0,.79-6.59,6.43,6.43,0,0,0-2.06-1.56,27.42,27.42,0,0,1,1.88-2,32.14,32.14,0,0,1,45,3.38c11.09,13,9.14,32.87-4.36,44.38S388.4,178.11,377.31,165.1Z"/><text class="e" transform="translate(73.35 129.11)">C<tspan class="f" x="6.71" y="0">CMS</tspan></text><ellipse class="b" cx="140.16" cy="144.4" rx="69.91" ry="73.04" transform="translate(-41.01 232.01) rotate(-71.66)"/><path class="c" d="M183.59,170.57a40,40,0,0,0,5-45l-.12.14a5.63,5.63,0,1,1-6.27-8.93c-.85-.89-1.75-1.74-2.69-2.56a40,40,0,1,0,4,56.38Z"/><path class="d" d="M178.82,164.63c8.55-10,10.72-24.18,4.43-35.39l-.09.11c-1.56,1.83-5.74,2-7.64.4a4.9,4.9,0,0,1-.79-6.6,6.26,6.26,0,0,1,2.06-1.55,25.67,25.67,0,0,0-1.88-2A32.14,32.14,0,0,0,130,123c-11.09,13-9.14,32.87,4.36,44.38S167.73,177.63,178.82,164.63Z"/><circle class="g" cx="233.34" cy="261.95" r="6.27"/><circle class="g" cx="507.08" cy="253.17" r="2.51"/><circle class="g" cx="22.97" cy="148.25" r="10.03"/><circle class="h" cx="524.49" cy="175.23" r="10.03"/><circle class="h" cx="59" cy="37.67" r="6.27"/><circle class="i" cx="524.49" cy="28.89" r="2.51"/><circle class="i" cx="502.07" cy="43.94" r="10"/></svg>